<svg width="49" height="48" viewBox="0 0 49 48" fill="none" xmlns="http://www.w3.org/2000/svg">
<rect x="0.5" width="48" height="48" rx="24" fill="white"/>
<g clip-path="url(#clip0_103_735)">
<path d="M40.5 14.6667V18.6667H8.5V14.6667C8.5 12.4613 10.2947 10.6667 12.5 10.6667H16.5V8H19.1667V10.6667H29.8333V8H32.5V10.6667H36.5C38.7053 10.6667 40.5 12.4613 40.5 14.6667ZM40.5 30.6667C40.5 35.8133 36.312 40 31.1667 40C26.0213 40 21.8333 35.8133 21.8333 30.6667C21.8333 25.52 26.0213 21.3333 31.1667 21.3333C36.312 21.3333 40.5 25.52 40.5 30.6667ZM34.776 32.3907L32.5 30.1147V26.6667H29.8333V31.2187L32.8907 34.276L34.776 32.3907ZM19.1667 30.6667C19.1667 26.8947 20.9107 23.5333 23.632 21.3333H8.5V40H23.632C20.9107 37.8 19.1667 34.4387 19.1667 30.6667Z" fill="#006015"/>
</g>
<defs>
<clipPath id="clip0_103_735">
<rect width="32" height="32" fill="white" transform="translate(8.5 8)"/>
</clipPath>
</defs>
</svg>
