<svg width="34" height="34" viewBox="0 0 34 34" fill="none" xmlns="http://www.w3.org/2000/svg">
<rect width="34" height="34" rx="2" fill="#221F1F"/>
<path d="M17.3014 8.16436C17.2354 8.06191 17.1218 8 16.9999 8C16.8781 8 16.7645 8.06191 16.6985 8.16436C16.4689 8.52084 11.0747 16.931 11.0747 20.0747C11.0747 23.3419 13.7327 26 16.9999 26C20.2672 26 22.9252 23.3419 22.9252 20.0747C22.9252 16.931 17.531 8.52084 17.3014 8.16436ZM16.9999 25.2829C14.1282 25.2829 11.7918 22.9465 11.7918 20.0747C11.7918 18.8781 12.7384 16.5145 14.5293 13.2394C15.5174 11.4322 16.5155 9.80436 16.9999 9.02973C17.484 9.80373 18.4808 11.4295 19.4687 13.2358C21.2608 16.5128 22.2081 18.8776 22.2081 20.0747C22.2081 22.9465 19.8717 25.2829 16.9999 25.2829Z" fill="white"/>
<path d="M21.2155 19.7049C21.0175 19.7049 20.857 19.8654 20.857 20.0635C20.857 21.5821 19.9611 22.9646 18.5747 23.5854C18.3939 23.6663 18.313 23.8785 18.394 24.0592C18.4535 24.1924 18.5844 24.2713 18.7214 24.2713C18.7704 24.2713 18.8202 24.2613 18.8678 24.2399C20.5118 23.5037 21.5741 21.8644 21.5741 20.0635C21.5741 19.8654 21.4136 19.7049 21.2155 19.7049Z" fill="white"/>
<path d="M17.9076 24.1966C17.882 24.0002 17.7019 23.8619 17.5056 23.8875C17.3391 23.9093 17.169 23.9203 16.9999 23.9203C16.8019 23.9203 16.6414 24.0808 16.6414 24.2789C16.6414 24.4769 16.8019 24.6374 16.9999 24.6374C17.2 24.6374 17.4014 24.6243 17.5986 24.5985C17.7949 24.5729 17.9332 24.3929 17.9076 24.1966Z" fill="white"/>
<path d="M23.4287 10.5714L10.5715 24.7143" stroke="white" stroke-linecap="round"/>
</svg>
