<svg width="12" height="12" viewBox="0 0 12 12" fill="none" xmlns="http://www.w3.org/2000/svg">
<path d="M5.99996 11.8334C2.7783 11.8334 0.166626 9.22168 0.166626 6.00002C0.166626 2.77836 2.7783 0.166687 5.99996 0.166687C9.22162 0.166687 11.8333 2.77836 11.8333 6.00002C11.8298 9.22021 9.22015 11.8298 5.99996 11.8334ZM5.99996 1.33335C3.42263 1.33335 1.33329 3.42269 1.33329 6.00002C1.33329 8.57735 3.42263 10.6667 5.99996 10.6667C8.57729 10.6667 10.6666 8.57735 10.6666 6.00002C10.6637 3.42389 8.57609 1.33625 5.99996 1.33335ZM8.91663 6.58335H5.41663V3.08335H6.58329V5.41669H8.91663V6.58335Z" fill="#221F1F"/>
</svg>
