<svg width="16" height="20" viewBox="0 0 16 20" fill="none" xmlns="http://www.w3.org/2000/svg">
<path d="M16 14C16.0009 15.8247 14.7668 17.4188 13 17.875V20H11V17.874C8.98745 17.3544 7.70825 15.3799 8.05657 13.3307C8.40488 11.2816 10.2646 9.84063 12.3358 10.0151C14.4071 10.1897 15.9995 11.9214 16 14ZM10 14C10.0011 15.0926 10.8789 15.9821 11.9713 15.9978C13.0638 16.0134 13.9667 15.1494 13.9991 14.0573C14.0315 12.9652 13.1815 12.0492 12.09 12H12.49H12C10.8954 12 10 12.8954 10 14ZM13 0L13 9H11L11 0H13ZM8 9C8.00047 10.8244 6.76645 12.4179 5 12.874V20H3L3 12.874C0.987451 12.3544 -0.291746 10.3799 0.0565671 8.33072C0.40488 6.28155 2.26462 4.84063 4.33584 5.01514C6.40706 5.18965 7.99948 6.92144 8 9ZM2 9C2.00111 10.0926 2.87885 10.9821 3.97134 10.9978C5.06384 11.0134 5.96671 10.1494 5.99912 9.05731C6.03154 7.96519 5.1815 7.04917 4.09 7H4.49001H4C2.89544 7 2 7.89543 2 9ZM5 0V4H3L3 0H5Z" fill="black" fill-opacity="0.6"/>
</svg>
