<svg width="12" height="12" viewBox="0 0 12 12" fill="none" xmlns="http://www.w3.org/2000/svg">
<path d="M10.0833 11.8333H1.91667C1.27233 11.8333 0.75 11.311 0.75 10.6667V2.49999C0.75 1.85566 1.27233 1.33332 1.91667 1.33332H3.08333V0.166656H4.25V1.33332H7.75V0.166656H8.91667V1.33332H10.0833C10.7277 1.33332 11.25 1.85566 11.25 2.49999V10.6667C11.25 11.311 10.7277 11.8333 10.0833 11.8333ZM1.91667 4.83332V10.6667H10.0833V4.83332H1.91667ZM1.91667 2.49999V3.66666H10.0833V2.49999H1.91667ZM4.66183 9.91241L3.83758 9.08757L5.17517 7.74999L3.83758 6.41241L4.66242 5.58757L6 6.92516L7.33758 5.58816L8.16242 6.41299L6.82483 7.74999L8.16242 9.08757L7.33817 9.91182L6 8.57482L4.66242 9.91241H4.66183Z" fill="#C10000"/>
</svg>
