<svg width="96" height="27" viewBox="0 0 96 27" fill="none" xmlns="http://www.w3.org/2000/svg">
<g clip-path="url(#clip0_307_1651)">
<path d="M42.9115 5.58692L38.3031 11.7323H37.7769L33.27 5.56616V15.8538H30.6V1.70539H33.6715L38.0977 7.79077L42.5238 1.70539H45.5769V15.8538H42.9092V5.58692H42.9115Z" fill="#221F1F"/>
<path d="M48.1061 15.8354V1.68461H50.7531V15.8331H48.1061V15.8354Z" fill="#221F1F"/>
<path d="M62.3977 5.10231C61.9131 4.29231 60.5793 3.52615 59.0423 3.52615C57.0623 3.52615 56.1116 4.35462 56.1116 5.40692C56.1116 6.63923 57.5677 6.98308 59.2639 7.18615C62.2154 7.55077 64.9639 8.31692 64.9639 11.6931C64.9639 14.8454 62.1739 16.2 59.0216 16.2C56.13 16.2 53.9077 15.3115 52.8554 12.7246L55.08 11.5731C55.7054 13.1285 57.3439 13.8162 59.0608 13.8162C60.7385 13.8162 62.3146 13.23 62.3146 11.6931C62.3146 10.3592 60.9208 9.81231 59.04 9.61154C56.1485 9.26769 53.4808 8.49923 53.4808 5.32615C53.4808 2.41615 56.3516 1.22308 58.9593 1.20231C61.1631 1.20231 63.4454 1.83 64.5185 4.01308L62.3977 5.10231Z" fill="#221F1F"/>
<path d="M67.0247 15.8354V1.70539H77.1924V4.27154H69.6924V8.13231H76.7885V10.5992H69.6924V15.8354H67.0247Z" fill="#3D3737"/>
<path d="M79.2531 15.8354V1.68461H81.9V15.8331H79.2531V15.8354Z" fill="#3D3737"/>
<path d="M88.7147 4.11H84.2285V1.68461C88.3108 1.68461 91.7677 1.68461 95.8708 1.68461V4.11H91.3847V15.8331H88.717V4.11H88.7147Z" fill="#3D3737"/>
<path d="M32.6608 21.0092H30.4938V20.5985H35.2869V21.0092H33.12V26.5823H32.6585V21.0092H32.6608Z" fill="#3D3737"/>
<path d="M36.6162 23.3538H40.1262V23.7738H36.6162V26.1369H40.4009V26.5823H36.1616V20.5892H40.297V21.0254H36.6162V23.3538Z" fill="#3D3737"/>
<path d="M46.3661 25.7515C45.7661 26.3515 44.97 26.6515 44.1831 26.6515C42.1615 26.6515 41.1092 25.2392 41.1023 23.6215C41.0861 22.02 42.1292 20.5223 44.1831 20.5223C44.97 20.5223 45.7661 20.8223 46.3661 21.4223L46.0477 21.6923C45.5331 21.1777 44.8569 20.9308 44.1808 20.9308C42.4338 20.9308 41.5361 22.1631 41.5431 23.6008C41.5592 25.0038 42.45 26.22 44.1808 26.22C44.8569 26.22 45.5423 25.9638 46.0546 25.4585L46.3661 25.7515Z" fill="#3D3737"/>
<path d="M51.7315 26.5823V23.8592H47.9146V26.5823H47.4531V20.5892H47.9146V23.4392H51.7315V20.5892H52.1931V26.5823H51.7315Z" fill="#3D3737"/>
<path d="M53.7162 20.5892L57.7478 25.5462V20.5892H58.2001V26.5823H58.0201L53.9793 21.6346V26.5823H53.5178V20.5892H53.7162Z" fill="#3D3737"/>
<path d="M65.4093 23.5938C65.4001 25.17 64.3986 26.6838 62.3886 26.6838C60.3763 26.6838 59.3678 25.1608 59.3678 23.5754C59.3678 21.9669 60.3693 20.4946 62.3886 20.4946C64.4078 20.4946 65.4163 21.9762 65.4093 23.5938ZM59.8178 23.5846C59.827 24.9369 60.6832 26.2569 62.3863 26.2569C64.0986 26.2569 64.9616 24.9392 64.9616 23.5846C64.9616 22.1977 64.1055 20.9215 62.3863 20.9215C60.6647 20.9238 59.8109 22.1723 59.8178 23.5846Z" fill="#3D3737"/>
<path d="M66.9647 20.5892V26.1438H70.3385V26.58H66.5031V20.5892H66.9647Z" fill="#383130"/>
<path d="M76.8185 23.5938C76.8092 25.17 75.8077 26.6838 73.7977 26.6838C71.7854 26.6838 70.7769 25.1608 70.7769 23.5754C70.7769 21.9669 71.7785 20.4946 73.7977 20.4946C75.8169 20.4946 76.8254 21.9762 76.8185 23.5938ZM71.2269 23.5846C71.2361 24.9369 72.0923 26.2569 73.7954 26.2569C75.5077 26.2569 76.3708 24.9392 76.3708 23.5846C76.3708 22.1977 75.5146 20.9215 73.7954 20.9215C72.0738 20.9238 71.2177 22.1723 71.2269 23.5846Z" fill="#3D3737"/>
<path d="M82.6293 21.6923C82.1078 21.1777 81.3786 20.9215 80.7024 20.9215C78.9463 20.9215 78.0486 22.2046 78.0578 23.5915C78.0578 25.0038 78.9578 26.22 80.7024 26.22C81.344 26.22 82.0132 25.9962 82.5255 25.5254V23.8477H80.437V23.4462H82.9616V25.6892C82.3363 26.3146 81.5909 26.6562 80.7024 26.6562C78.6647 26.6562 77.6124 25.2346 77.6124 23.6008C77.6032 21.7269 78.8793 20.5015 80.7024 20.5015C81.4893 20.5015 82.2855 20.8015 82.8947 21.4015L82.6293 21.6923Z" fill="#3D3737"/>
<path d="M84.2192 26.5823V20.5892H84.6715V26.5823H84.2192Z" fill="#3D3737"/>
<path d="M86.4439 23.3538H89.9539V23.7738H86.4439V26.1369H90.2285V26.5823H85.9916V20.5892H90.127V21.0254H86.4462V23.3538H86.4439Z" fill="#3D3737"/>
<path d="M95.3124 21.7454C94.8763 21.0438 94.1747 20.94 93.4986 20.9331C92.797 20.9331 91.6847 21.1892 91.6847 22.1492C91.6847 22.9108 92.5063 23.0908 93.517 23.28C94.6732 23.5038 95.8709 23.7069 95.8709 25.0015C95.8617 26.3538 94.5001 26.6792 93.4986 26.6792C92.5663 26.6792 91.5047 26.2938 91.0409 25.3777L91.4517 25.1723C91.8209 25.8992 92.7624 26.2592 93.4963 26.2592C94.2324 26.2592 95.4047 26.0538 95.4047 24.9923C95.414 24.0923 94.4217 23.8962 93.4363 23.7069C92.3401 23.4923 91.2186 23.2708 91.2186 22.1654C91.1932 20.8985 92.5109 20.5038 93.4963 20.5038C94.3524 20.5038 95.0978 20.64 95.6886 21.5238L95.3124 21.7454Z" fill="#3D3737"/>
<path d="M7.06157 11.6169L3.25619 15.1431C2.46926 15.8723 1.24388 15.8262 0.514648 15.0392C-0.212276 14.2546 -0.166122 13.0269 0.620802 12.2977L4.42619 8.77154C5.21311 8.04231 6.43849 8.08846 7.16773 8.87538C7.89696 9.66 7.8485 10.8877 7.06157 11.6169Z" fill="#221F1F"/>
<path d="M4.04546 18.8446L0.519308 15.0392C-0.209924 14.2523 -0.16377 13.0269 0.623154 12.2977C1.40777 11.5708 2.63545 11.6169 3.36469 12.4038L6.89084 16.2092C7.62007 16.9962 7.57392 18.2215 6.78699 18.9508C6.00238 19.68 4.77469 19.6315 4.04546 18.8446Z" fill="#3D3737"/>
<path d="M17.7877 22.6108L13.9823 26.1369C13.1954 26.8662 11.97 26.82 11.2408 26.0331C10.5139 25.2485 10.56 24.0208 11.3469 23.2915L15.1523 19.7654C15.9392 19.0362 17.1646 19.0823 17.8939 19.8692C18.6231 20.6562 18.5746 21.8838 17.7877 22.6108Z" fill="#221F1F"/>
<path d="M10.5577 19.5992L14.0839 23.4046C14.8131 24.1915 14.7669 25.4169 13.98 26.1462C13.1954 26.8731 11.9677 26.8269 11.2385 26.04L7.71462 22.2323C6.98539 21.4454 7.03154 20.22 7.81847 19.4908C8.60308 18.7638 9.83077 18.8123 10.5577 19.5992Z" fill="#3D3737"/>
<path d="M10.23 4.10077L14.0354 7.62692C14.8223 8.35615 14.8685 9.58154 14.1415 10.3685C13.4146 11.1531 12.1869 11.1992 11.4 10.4723L7.59462 6.94385C6.80769 6.21461 6.76154 4.98923 7.48846 4.20231C8.21769 3.41769 9.44308 3.37385 10.23 4.10077Z" fill="#3D3737"/>
<path d="M17.67 6.56538L14.1438 10.3708C13.4146 11.1577 12.1892 11.2038 11.4023 10.4769C10.6177 9.75 10.5715 8.52231 11.2985 7.73538L14.8246 3.93C15.5538 3.14308 16.7792 3.09692 17.5662 3.82384C18.3531 4.55077 18.3992 5.77846 17.67 6.56538Z" fill="#221F1F"/>
<path d="M18.5977 16.0385L22.4031 12.5123C23.19 11.7831 24.4154 11.8292 25.1447 12.6162C25.8716 13.4008 25.8254 14.6285 25.0385 15.3577L21.2331 18.8815C20.4462 19.6108 19.2208 19.5646 18.4916 18.7777C17.7647 17.9954 17.8108 16.7677 18.5977 16.0385Z" fill="#221F1F"/>
<path d="M21.6162 8.80616L25.1424 12.6115C25.8716 13.3985 25.8255 14.6238 25.0385 15.3531C24.2539 16.08 23.0262 16.0338 22.297 15.2469L18.7732 11.4415C18.0439 10.6546 18.0901 9.42923 18.877 8.7C19.6593 7.97308 20.887 8.01923 21.6162 8.80616Z" fill="#3D3737"/>
<path d="M8.37931 15.4154C9.19754 15.4154 9.86084 14.7521 9.86084 13.9338C9.86084 13.1156 9.19754 12.4523 8.37931 12.4523C7.56107 12.4523 6.89777 13.1156 6.89777 13.9338C6.89777 14.7521 7.56107 15.4154 8.37931 15.4154Z" fill="#221F1F"/>
<path d="M17.467 15.4154C18.2852 15.4154 18.9485 14.7521 18.9485 13.9338C18.9485 13.1156 18.2852 12.4523 17.467 12.4523C16.6487 12.4523 15.9854 13.1156 15.9854 13.9338C15.9854 14.7521 16.6487 15.4154 17.467 15.4154Z" fill="#221F1F"/>
<path d="M13.0869 19.3154C13.9052 19.3154 14.5685 18.6521 14.5685 17.8338C14.5685 17.0156 13.9052 16.3523 13.0869 16.3523C12.2687 16.3523 11.6054 17.0156 11.6054 17.8338C11.6054 18.6521 12.2687 19.3154 13.0869 19.3154Z" fill="#221F1F"/>
<path d="M19.7308 2.96308C20.549 2.96308 21.2123 2.29977 21.2123 1.48154C21.2123 0.663307 20.549 0 19.7308 0C18.9126 0 18.2493 0.663307 18.2493 1.48154C18.2493 2.29977 18.9126 2.96308 19.7308 2.96308Z" fill="#221F1F"/>
</g>
<defs>
<clipPath id="clip0_307_1651">
<rect width="96" height="26.7692" fill="white"/>
</clipPath>
</defs>
</svg>
