<svg width="34" height="34" viewBox="0 0 34 34" fill="none" xmlns="http://www.w3.org/2000/svg">
<rect width="34" height="34" rx="2" fill="#221F1F"/>
<path d="M14.5566 14.5114C13.7518 15.1953 13.4568 16.4425 14.1518 17.4431C14.8021 18.3794 15.6213 19.1985 16.5574 19.8485C17.558 20.5433 18.8052 20.2483 19.489 19.4434L19.4966 19.4469C20.3701 19.8516 21.2978 20.1289 22.25 20.2702V22.25L22.2492 22.25L22.2471 22.25C16.2661 22.2585 11.7436 17.6833 11.75 11.7527V11.75H13.7295L13.7297 11.7509C13.871 12.703 14.1482 13.6299 14.5529 14.5033L14.5566 14.5114ZM22.2492 23.75H23C23.4142 23.75 23.75 23.4142 23.75 23V19.6233C23.75 19.2516 23.4778 18.936 23.1101 18.8814L22.4695 18.7863C21.6592 18.6661 20.8704 18.4302 20.1271 18.0859L19.5625 17.8243C19.2353 17.6728 18.8465 17.7755 18.6369 18.0689L18.3813 18.4268C18.1573 18.7405 17.7296 18.8363 17.413 18.6164C16.6238 18.0684 15.9321 17.3768 15.3838 16.5874C15.1639 16.2708 15.2597 15.843 15.5734 15.619L15.9311 15.3636C16.2246 15.154 16.3273 14.7652 16.1757 14.4379L15.9139 13.8727C15.5696 13.1295 15.3337 12.3408 15.2134 11.5306L15.1183 10.8899C15.0637 10.5222 14.7481 10.25 14.3764 10.25H11C10.5858 10.25 10.25 10.5858 10.25 11V11.7511C10.2427 18.5059 15.4327 23.7597 22.2492 23.75Z" fill="white"/>
</svg>
