<svg width="375" height="812" viewBox="0 0 375 812" fill="none" xmlns="http://www.w3.org/2000/svg">
<g clip-path="url(#clip0_3_539)">
<rect width="375" height="812" fill="white"/>
<g opacity="0.03">
<path d="M120.84 715.729L28.2561 801.412C9.11053 819.132 -20.7027 818.011 -38.4446 798.889C-56.1304 779.823 -55.0075 749.991 -35.8619 732.271L56.7219 646.588C75.8674 628.868 105.681 629.989 123.423 649.111C141.165 668.233 139.985 698.065 120.84 715.729Z" fill="#221F1F"/>
<path d="M-55.3018 642.168L30.4084 734.747C48.1337 753.892 47.0119 783.704 27.8842 801.445C8.81256 819.13 -21.0289 818.007 -38.7543 798.863L-124.408 706.227C-142.134 687.082 -141.012 657.27 -121.884 639.529C-102.813 621.844 -72.9711 623.023 -55.3018 642.168Z" fill="#3D3737"/>
<path d="M-62.7345 265.576L29.8602 351.287C49.008 369.012 50.131 398.798 32.4431 417.926C14.7553 436.998 -15.1176 438.12 -34.2654 420.45L-126.86 334.683C-146.008 316.958 -147.131 287.172 -129.443 268.044C-111.699 248.972 -81.8824 247.906 -62.7345 265.576Z" fill="#3D3737"/>
<path d="M117.409 325.265L31.706 417.86C13.9819 437.008 -15.8011 438.131 -34.9273 420.443C-53.9975 402.755 -55.1192 372.882 -37.4513 353.735L48.2521 261.14C65.9761 241.992 95.7592 240.869 114.885 258.557C134.012 276.245 135.133 306.118 117.409 325.265Z" fill="#221F1F"/>
<path d="M140.14 556.302L232.735 470.592C251.882 452.866 281.699 453.988 299.443 473.116C317.131 492.187 316.008 522.029 296.86 539.754L204.265 625.408C185.118 643.134 155.301 642.012 137.557 622.884C119.869 603.869 120.992 574.027 140.14 556.302Z" fill="#221F1F"/>
<path d="M213.698 380.14L299.408 472.735C317.134 491.882 316.012 521.699 296.884 539.443C277.813 557.131 247.971 556.008 230.246 536.86L144.592 444.265C126.866 425.118 127.988 395.301 147.116 377.557C166.131 359.869 195.973 360.992 213.698 380.14Z" fill="#3D3737"/>
<path d="M113 541C132.882 541 149 524.882 149 505C149 485.118 132.882 469 113 469C93.1182 469 77 485.118 77 505C77 524.882 93.1182 541 113 541Z" fill="#221F1F"/>
<path d="M5.99999 635C25.8819 635 42 618.882 42 599C42 579.118 25.8819 563 5.99999 563C-13.8824 563 -30 579.118 -30 599C-30 618.882 -13.8824 635 5.99999 635Z" fill="#221F1F"/>
<path d="M168 238C187.882 238 204 221.882 204 202C204 182.118 187.882 166 168 166C148.118 166 132 182.118 132 202C132 221.882 148.118 238 168 238Z" fill="#221F1F"/>
</g>
<path d="M170.018 337.215L158.155 348.208C155.702 350.481 151.882 350.337 149.609 347.884C147.343 345.438 147.487 341.611 149.94 339.337L161.803 328.345C164.256 326.071 168.076 326.215 170.349 328.668C172.623 331.114 172.472 334.942 170.018 337.215Z" fill="#221F1F"/>
<path d="M160.616 359.747L149.623 347.884C147.35 345.431 147.494 341.611 149.947 339.337C152.393 337.071 156.22 337.215 158.493 339.668L169.486 351.531C171.759 353.984 171.615 357.804 169.162 360.078C166.716 362.351 162.889 362.2 160.616 359.747Z" fill="#3D3737"/>
<path d="M203.456 371.488L191.593 382.48C189.14 384.754 185.32 384.61 183.047 382.156C180.781 379.71 180.925 375.883 183.378 373.61L195.241 362.617C197.694 360.344 201.514 360.488 203.787 362.941C206.061 365.394 205.91 369.221 203.456 371.488Z" fill="#221F1F"/>
<path d="M180.917 362.099L191.91 373.962C194.183 376.416 194.039 380.236 191.586 382.509C189.14 384.775 185.313 384.631 183.04 382.178L172.054 370.308C169.781 367.855 169.925 364.035 172.378 361.761C174.824 359.495 178.651 359.646 180.917 362.099Z" fill="#3D3737"/>
<path d="M179.896 313.784L191.759 324.776C194.212 327.05 194.356 330.87 192.09 333.323C189.824 335.769 185.996 335.913 183.543 333.647L171.68 322.647C169.227 320.374 169.083 316.554 171.349 314.1C173.623 311.654 177.443 311.518 179.896 313.784Z" fill="#3D3737"/>
<path d="M203.09 321.467L192.097 333.33C189.824 335.783 186.004 335.927 183.55 333.661C181.104 331.395 180.961 327.568 183.227 325.115L194.219 313.252C196.493 310.798 200.313 310.654 202.766 312.921C205.219 315.187 205.363 319.014 203.09 321.467Z" fill="#221F1F"/>
<path d="M205.982 350.999L217.845 340.006C220.298 337.733 224.118 337.877 226.391 340.33C228.657 342.776 228.514 346.603 226.06 348.877L214.197 359.862C211.744 362.135 207.924 361.991 205.651 359.538C203.385 357.099 203.528 353.272 205.982 350.999Z" fill="#221F1F"/>
<path d="M215.391 328.453L226.384 340.316C228.657 342.769 228.513 346.589 226.06 348.862C223.614 351.128 219.787 350.984 217.514 348.531L206.528 336.668C204.255 334.215 204.399 330.395 206.852 328.122C209.291 325.856 213.118 325.999 215.391 328.453Z" fill="#3D3737"/>
<path d="M174.126 349.056C176.677 349.056 178.745 346.989 178.745 344.438C178.745 341.887 176.677 339.819 174.126 339.819C171.575 339.819 169.508 341.887 169.508 344.438C169.508 346.989 171.575 349.056 174.126 349.056Z" fill="#221F1F"/>
<path d="M202.457 349.056C205.007 349.056 207.075 346.989 207.075 344.438C207.075 341.887 205.007 339.819 202.457 339.819C199.906 339.819 197.838 341.887 197.838 344.438C197.838 346.989 199.906 349.056 202.457 349.056Z" fill="#221F1F"/>
<path d="M188.802 361.214C191.353 361.214 193.421 359.147 193.421 356.596C193.421 354.045 191.353 351.977 188.802 351.977C186.251 351.977 184.184 354.045 184.184 356.596C184.184 359.147 186.251 361.214 188.802 361.214Z" fill="#221F1F"/>
<path d="M209.514 310.237C212.065 310.237 214.133 308.169 214.133 305.619C214.133 303.068 212.065 301 209.514 301C206.963 301 204.895 303.068 204.895 305.619C204.895 308.169 206.963 310.237 209.514 310.237Z" fill="#221F1F"/>
<path d="M150.793 402.166L142.334 413.446H141.368L133.096 402.128V421.011H128.195V395.041H133.833L141.957 406.211L150.081 395.041H155.685V421.011H150.789V402.166H150.793Z" fill="#221F1F"/>
<path d="M131.977 430.474H128V429.72H136.798V430.474H132.82V440.703H131.973V430.474H131.977Z" fill="#3D3737"/>
<path d="M160.328 420.977V395.003H165.186V420.973H160.328V420.977Z" fill="#221F1F"/>
<path d="M186.56 401.276C185.67 399.789 183.222 398.383 180.401 398.383C176.767 398.383 175.022 399.904 175.022 401.835C175.022 404.097 177.694 404.728 180.808 405.101C186.225 405.77 191.27 407.177 191.27 413.374C191.27 419.16 186.149 421.646 180.363 421.646C175.055 421.646 170.976 420.015 169.045 415.267L173.128 413.153C174.276 416.008 177.283 417.271 180.435 417.271C183.514 417.271 186.407 416.195 186.407 413.374C186.407 410.925 183.849 409.921 180.397 409.553C175.089 408.922 170.193 407.511 170.193 401.687C170.193 396.346 175.462 394.156 180.249 394.118C184.294 394.118 188.483 395.27 190.453 399.277L186.56 401.276Z" fill="#221F1F"/>
<path d="M195.053 420.977V395.041H213.715V399.751H199.949V406.838H212.974V411.366H199.949V420.977H195.053Z" fill="#3D3737"/>
<path d="M217.498 420.977V395.003H222.356V420.973H217.498V420.977Z" fill="#3D3737"/>
<path d="M234.865 399.455H226.63V395.003C234.124 395.003 240.469 395.003 248 395.003V399.455H239.766V420.973H234.869V399.455H234.865Z" fill="#3D3737"/>
<path d="M139.238 434.777H145.68V435.548H139.238V439.885H146.184V440.703H138.403V429.703H145.994V430.503H139.238V434.777Z" fill="#3D3737"/>
<path d="M157.134 439.178C156.032 440.279 154.571 440.83 153.127 440.83C149.416 440.83 147.485 438.238 147.472 435.268C147.442 432.329 149.357 429.58 153.127 429.58C154.571 429.58 156.032 430.13 157.134 431.232L156.549 431.727C155.605 430.783 154.364 430.33 153.122 430.33C149.916 430.33 148.268 432.591 148.281 435.23C148.311 437.806 149.946 440.038 153.122 440.038C154.364 440.038 155.622 439.568 156.562 438.64L157.134 439.178Z" fill="#3D3737"/>
<path d="M166.982 440.703V435.705H159.976V440.703H159.129V429.703H159.976V434.934H166.982V429.703H167.829V440.703H166.982Z" fill="#3D3737"/>
<path d="M170.625 429.703L178.025 438.801V429.703H178.855V440.703H178.525L171.108 431.621V440.703H170.26V429.703H170.625Z" fill="#3D3737"/>
<path d="M192.088 435.218C192.071 438.111 190.232 440.889 186.543 440.889C182.849 440.889 180.998 438.094 180.998 435.184C180.998 432.231 182.837 429.529 186.543 429.529C190.249 429.529 192.1 432.248 192.088 435.218ZM181.824 435.201C181.841 437.683 183.413 440.106 186.539 440.106C189.682 440.106 191.266 437.687 191.266 435.201C191.266 432.655 189.694 430.313 186.539 430.313C183.379 430.317 181.811 432.608 181.824 435.201Z" fill="#3D3737"/>
<path d="M194.942 429.703V439.898H201.135V440.699H194.095V429.703H194.942Z" fill="#383130"/>
<path d="M213.029 435.218C213.012 438.111 211.174 440.889 207.485 440.889C203.791 440.889 201.94 438.094 201.94 435.184C201.94 432.231 203.778 429.529 207.485 429.529C211.191 429.529 213.042 432.248 213.029 435.218ZM202.766 435.201C202.783 437.683 204.354 440.106 207.48 440.106C210.623 440.106 212.208 437.687 212.208 435.201C212.208 432.655 210.636 430.313 207.48 430.313C204.32 430.317 202.749 432.608 202.766 435.201Z" fill="#3D3737"/>
<path d="M223.695 431.727C222.738 430.783 221.399 430.313 220.158 430.313C216.935 430.313 215.287 432.668 215.304 435.213C215.304 437.806 216.956 440.038 220.158 440.038C221.336 440.038 222.564 439.627 223.504 438.763V435.684H219.671V434.947H224.305V439.064C223.157 440.212 221.789 440.839 220.158 440.839C216.418 440.839 214.486 438.229 214.486 435.23C214.469 431.791 216.812 429.542 220.158 429.542C221.603 429.542 223.064 430.092 224.182 431.194L223.695 431.727Z" fill="#3D3737"/>
<path d="M226.613 440.703V429.703H227.444V440.703H226.613Z" fill="#3D3737"/>
<path d="M230.697 434.777H237.139V435.548H230.697V439.885H237.643V440.703H229.867V429.703H237.457V430.503H230.701V434.777H230.697Z" fill="#3D3737"/>
<path d="M246.975 431.825C246.174 430.537 244.887 430.346 243.646 430.334C242.358 430.334 240.316 430.804 240.316 432.566C240.316 433.964 241.824 434.294 243.679 434.642C245.802 435.052 248 435.425 248 437.801C247.983 440.284 245.484 440.881 243.646 440.881C241.934 440.881 239.986 440.174 239.134 438.492L239.888 438.115C240.566 439.449 242.294 440.11 243.641 440.11C244.993 440.11 247.144 439.733 247.144 437.785C247.161 436.133 245.34 435.773 243.531 435.425C241.519 435.031 239.461 434.625 239.461 432.596C239.414 430.27 241.833 429.546 243.641 429.546C245.213 429.546 246.581 429.796 247.665 431.418L246.975 431.825Z" fill="#3D3737"/>
</g>
<defs>
<clipPath id="clip0_3_539">
<rect width="375" height="812" fill="white"/>
</clipPath>
</defs>
</svg>
